<svg xmlns="http://www.w3.org/2000/svg" xmlns:xlink="http://www.w3.org/1999/xlink" viewBox="0 0 233.73 131.5"><defs><style>.cls-1{fill:#fff;stroke-linecap:round;stroke-miterlimit:10;stroke-width:15px;stroke:url(#linear-gradient);}.cls-2{fill:#55d1ff;}</style><linearGradient id="linear-gradient" y1="65.75" x2="233.73" y2="65.75" gradientUnits="userSpaceOnUse"><stop offset="0" stop-color="#6afcff"/><stop offset="1" stop-color="#0081aa"/></linearGradient></defs><title>Logo</title><g id="Layer_2" data-name="Layer 2"><g id="Layer_1-2" data-name="Layer 1"><path class="cls-1" d="M140.56,38.5a45.4,45.4,0,0,0-86.11,0H41c-10.31,0-15.79,3.34-21.31,8.5C15.91,50.54,7.4,62.19,7.5,75c.19,23,17.28,36.5,33.5,36.5,0,0,39.13.23,52.17,0C121.69,111,165.69,55,195.69,55c38,0,43,69,1,69-12.55,0-34-20-34-20"/><circle class="cls-2" cx="182.74" cy="87.95" r="3.55"/><circle class="cls-2" cx="193.19" cy="87.95" r="3.55"/><circle class="cls-2" cx="203.65" cy="87.95" r="3.55"/></g></g></svg>